<svg xmlns="http://www.w3.org/2000/svg" version="1.1" xmlns:xlink="http://www.w3.org/1999/xlink" xmlns:svgjs="http://svgjs.com/svgjs" width="1440" height="560" preserveAspectRatio="none" viewBox="0 0 1440 560"><g mask="url(&quot;#SvgjsMask1043&quot;)" fill="none"><rect width="1440" height="560" x="0" y="0" fill="rgba(0, 0, 0, 1)"></rect><path d="M774 511L629 656" stroke-width="8" stroke="url(#SvgjsLinearGradient1044)" stroke-linecap="round" class="BottomLeft"></path><path d="M548 48L787 -191" stroke-width="10" stroke="url(#SvgjsLinearGradient1044)" stroke-linecap="round" class="BottomLeft"></path><path d="M691 83L1026 -252" stroke-width="10" stroke="url(#SvgjsLinearGradient1044)" stroke-linecap="round" class="BottomLeft"></path><path d="M143 483L-122 748" stroke-width="10" stroke="url(#SvgjsLinearGradient1045)" stroke-linecap="round" class="BottomLeft"></path><path d="M821 309L556 574" stroke-width="6" stroke="url(#SvgjsLinearGradient1046)" stroke-linecap="round" class="TopRight"></path><path d="M70 238L273 35" stroke-width="10" stroke="url(#SvgjsLinearGradient1046)" stroke-linecap="round" class="TopRight"></path><path d="M1300 59L1028 331" stroke-width="6" stroke="url(#SvgjsLinearGradient1046)" stroke-linecap="round" class="TopRight"></path><path d="M1434 555L1034 955" stroke-width="6" stroke="url(#SvgjsLinearGradient1045)" stroke-linecap="round" class="BottomLeft"></path><path d="M963 496L1351 108" stroke-width="6" stroke="url(#SvgjsLinearGradient1046)" stroke-linecap="round" class="TopRight"></path><path d="M1343 174L1629 -112" stroke-width="10" stroke="url(#SvgjsLinearGradient1047)" stroke-linecap="round" class="TopRight"></path><path d="M534 224L182 576" stroke-width="8" stroke="url(#SvgjsLinearGradient1045)" stroke-linecap="round" class="BottomLeft"></path><path d="M1043 347L849 541" stroke-width="8" stroke="url(#SvgjsLinearGradient1047)" stroke-linecap="round" class="TopRight"></path><path d="M1397 426L1013 810" stroke-width="6" stroke="url(#SvgjsLinearGradient1046)" stroke-linecap="round" class="TopRight"></path><path d="M1192 263L1004 451" stroke-width="6" stroke="url(#SvgjsLinearGradient1044)" stroke-linecap="round" class="BottomLeft"></path><path d="M657 31L436 252" stroke-width="6" stroke="url(#SvgjsLinearGradient1044)" stroke-linecap="round" class="BottomLeft"></path><path d="M719 40L457 302" stroke-width="10" stroke="url(#SvgjsLinearGradient1045)" stroke-linecap="round" class="BottomLeft"></path><path d="M97 378L259 216" stroke-width="6" stroke="url(#SvgjsLinearGradient1046)" stroke-linecap="round" class="TopRight"></path><path d="M1151 429L753 827" stroke-width="8" stroke="url(#SvgjsLinearGradient1044)" stroke-linecap="round" class="BottomLeft"></path><path d="M936 419L1160 195" stroke-width="10" stroke="url(#SvgjsLinearGradient1044)" stroke-linecap="round" class="BottomLeft"></path><path d="M1152 117L904 365" stroke-width="6" stroke="url(#SvgjsLinearGradient1047)" stroke-linecap="round" class="TopRight"></path><path d="M892 150L673 369" stroke-width="8" stroke="url(#SvgjsLinearGradient1045)" stroke-linecap="round" class="BottomLeft"></path><path d="M975 359L558 776" stroke-width="8" stroke="url(#SvgjsLinearGradient1044)" stroke-linecap="round" class="BottomLeft"></path><path d="M794 285L374 705" stroke-width="6" stroke="url(#SvgjsLinearGradient1045)" stroke-linecap="round" class="BottomLeft"></path><path d="M1122 378L843 657" stroke-width="6" stroke="url(#SvgjsLinearGradient1044)" stroke-linecap="round" class="BottomLeft"></path><path d="M239 268L614 -107" stroke-width="10" stroke="url(#SvgjsLinearGradient1047)" stroke-linecap="round" class="TopRight"></path><path d="M1129 252L784 597" stroke-width="6" stroke="url(#SvgjsLinearGradient1044)" stroke-linecap="round" class="BottomLeft"></path><path d="M1304 439L1526 217" stroke-width="6" stroke="url(#SvgjsLinearGradient1047)" stroke-linecap="round" class="TopRight"></path><path d="M1298 340L902 736" stroke-width="8" stroke="url(#SvgjsLinearGradient1046)" stroke-linecap="round" class="TopRight"></path><path d="M1076 56L865 267" stroke-width="6" stroke="url(#SvgjsLinearGradient1047)" stroke-linecap="round" class="TopRight"></path><path d="M1401 156L1816 -259" stroke-width="6" stroke="url(#SvgjsLinearGradient1047)" stroke-linecap="round" class="TopRight"></path><path d="M1059 134L778 415" stroke-width="8" stroke="url(#SvgjsLinearGradient1044)" stroke-linecap="round" class="BottomLeft"></path><path d="M903 244L1045 102" stroke-width="6" stroke="url(#SvgjsLinearGradient1045)" stroke-linecap="round" class="BottomLeft"></path><path d="M770 552L445 877" stroke-width="10" stroke="url(#SvgjsLinearGradient1047)" stroke-linecap="round" class="TopRight"></path><path d="M302 318L34 586" stroke-width="8" stroke="url(#SvgjsLinearGradient1046)" stroke-linecap="round" class="TopRight"></path><path d="M1345 214L1131 428" stroke-width="8" stroke="url(#SvgjsLinearGradient1046)" stroke-linecap="round" class="TopRight"></path><path d="M347 454L136 665" stroke-width="8" stroke="url(#SvgjsLinearGradient1044)" stroke-linecap="round" class="BottomLeft"></path><path d="M333 176L624 -115" stroke-width="8" stroke="url(#SvgjsLinearGradient1044)" stroke-linecap="round" class="BottomLeft"></path><path d="M1267 227L1667 -173" stroke-width="8" stroke="url(#SvgjsLinearGradient1047)" stroke-linecap="round" class="TopRight"></path><path d="M981 397L1128 250" stroke-width="10" stroke="url(#SvgjsLinearGradient1046)" stroke-linecap="round" class="TopRight"></path></g><defs><mask id="SvgjsMask1043"><rect width="1440" height="560" fill="#ffffff"></rect></mask><linearGradient x1="100%" y1="0%" x2="0%" y2="100%" id="SvgjsLinearGradient1044"><stop stop-color="rgba(27, 182, 48, 0)" offset="0"></stop><stop stop-color="rgba(27, 182, 48, 1)" offset="1"></stop></linearGradient><linearGradient x1="100%" y1="0%" x2="0%" y2="100%" id="SvgjsLinearGradient1045"><stop stop-color="rgba(68, 68, 68, 0)" offset="0"></stop><stop stop-color="rgba(68, 68, 68, 1)" offset="1"></stop></linearGradient><linearGradient x1="0%" y1="100%" x2="100%" y2="0%" id="SvgjsLinearGradient1046"><stop stop-color="rgba(68, 68, 68, 0)" offset="0"></stop><stop stop-color="rgba(68, 68, 68, 1)" offset="1"></stop></linearGradient><linearGradient x1="0%" y1="100%" x2="100%" y2="0%" id="SvgjsLinearGradient1047"><stop stop-color="rgba(27, 182, 48, 0)" offset="0"></stop><stop stop-color="rgba(27, 182, 48, 1)" offset="1"></stop></linearGradient></defs></svg>