<svg xmlns="http://www.w3.org/2000/svg" version="1.1" xmlns:xlink="http://www.w3.org/1999/xlink" xmlns:svgjs="http://svgjs.com/svgjs" width="1440" height="560" preserveAspectRatio="none" viewBox="0 0 1440 560"><g mask="url(&quot;#SvgjsMask1048&quot;)" fill="none"><rect width="1440" height="560" x="0" y="0" fill="rgba(0, 0, 0, 1)"></rect><path d="M1190 217L820 587" stroke-width="10" stroke="url(#SvgjsLinearGradient1049)" stroke-linecap="round" class="TopRight"></path><path d="M795 483L955 323" stroke-width="6" stroke="url(#SvgjsLinearGradient1050)" stroke-linecap="round" class="TopRight"></path><path d="M1065 2L760 307" stroke-width="6" stroke="url(#SvgjsLinearGradient1051)" stroke-linecap="round" class="BottomLeft"></path><path d="M1109 548L940 717" stroke-width="10" stroke="url(#SvgjsLinearGradient1049)" stroke-linecap="round" class="TopRight"></path><path d="M1034 263L1329 -32" stroke-width="10" stroke="url(#SvgjsLinearGradient1050)" stroke-linecap="round" class="TopRight"></path><path d="M241 471L55 657" stroke-width="10" stroke="url(#SvgjsLinearGradient1049)" stroke-linecap="round" class="TopRight"></path><path d="M997 125L648 474" stroke-width="6" stroke="url(#SvgjsLinearGradient1049)" stroke-linecap="round" class="TopRight"></path><path d="M571 443L253 761" stroke-width="8" stroke="url(#SvgjsLinearGradient1052)" stroke-linecap="round" class="BottomLeft"></path><path d="M948 246L591 603" stroke-width="10" stroke="url(#SvgjsLinearGradient1052)" stroke-linecap="round" class="BottomLeft"></path><path d="M1157 480L1328 309" stroke-width="6" stroke="url(#SvgjsLinearGradient1051)" stroke-linecap="round" class="BottomLeft"></path><path d="M120 84L-281 485" stroke-width="10" stroke="url(#SvgjsLinearGradient1052)" stroke-linecap="round" class="BottomLeft"></path><path d="M1275 333L1687 -79" stroke-width="8" stroke="url(#SvgjsLinearGradient1051)" stroke-linecap="round" class="BottomLeft"></path><path d="M383 396L238 541" stroke-width="6" stroke="url(#SvgjsLinearGradient1049)" stroke-linecap="round" class="TopRight"></path><path d="M1382 9L1023 368" stroke-width="10" stroke="url(#SvgjsLinearGradient1051)" stroke-linecap="round" class="BottomLeft"></path><path d="M1021 531L664 888" stroke-width="10" stroke="url(#SvgjsLinearGradient1049)" stroke-linecap="round" class="TopRight"></path><path d="M1179 296L1033 442" stroke-width="8" stroke="url(#SvgjsLinearGradient1050)" stroke-linecap="round" class="TopRight"></path><path d="M276 136L-15 427" stroke-width="6" stroke="url(#SvgjsLinearGradient1051)" stroke-linecap="round" class="BottomLeft"></path><path d="M1365 94L1199 260" stroke-width="6" stroke="url(#SvgjsLinearGradient1051)" stroke-linecap="round" class="BottomLeft"></path><path d="M562 44L866 -260" stroke-width="10" stroke="url(#SvgjsLinearGradient1051)" stroke-linecap="round" class="BottomLeft"></path><path d="M1281 164L942 503" stroke-width="10" stroke="url(#SvgjsLinearGradient1049)" stroke-linecap="round" class="TopRight"></path><path d="M1000 11L858 153" stroke-width="10" stroke="url(#SvgjsLinearGradient1052)" stroke-linecap="round" class="BottomLeft"></path><path d="M683 497L419 761" stroke-width="6" stroke="url(#SvgjsLinearGradient1051)" stroke-linecap="round" class="BottomLeft"></path><path d="M240 542L-135 917" stroke-width="6" stroke="url(#SvgjsLinearGradient1051)" stroke-linecap="round" class="BottomLeft"></path><path d="M1211 131L890 452" stroke-width="6" stroke="url(#SvgjsLinearGradient1052)" stroke-linecap="round" class="BottomLeft"></path><path d="M974 248L676 546" stroke-width="8" stroke="url(#SvgjsLinearGradient1052)" stroke-linecap="round" class="BottomLeft"></path><path d="M517 32L824 -275" stroke-width="10" stroke="url(#SvgjsLinearGradient1052)" stroke-linecap="round" class="BottomLeft"></path><path d="M744 401L1083 62" stroke-width="10" stroke="url(#SvgjsLinearGradient1050)" stroke-linecap="round" class="TopRight"></path><path d="M195 434L-62 691" stroke-width="8" stroke="url(#SvgjsLinearGradient1050)" stroke-linecap="round" class="TopRight"></path><path d="M238 233L-78 549" stroke-width="6" stroke="url(#SvgjsLinearGradient1052)" stroke-linecap="round" class="BottomLeft"></path><path d="M1147 139L1477 -191" stroke-width="8" stroke="url(#SvgjsLinearGradient1052)" stroke-linecap="round" class="BottomLeft"></path><path d="M235 26L45 216" stroke-width="10" stroke="url(#SvgjsLinearGradient1052)" stroke-linecap="round" class="BottomLeft"></path><path d="M732 276L1122 -114" stroke-width="8" stroke="url(#SvgjsLinearGradient1049)" stroke-linecap="round" class="TopRight"></path><path d="M881 62L660 283" stroke-width="10" stroke="url(#SvgjsLinearGradient1051)" stroke-linecap="round" class="BottomLeft"></path><path d="M841 273L1246 -132" stroke-width="10" stroke="url(#SvgjsLinearGradient1050)" stroke-linecap="round" class="TopRight"></path><path d="M895 394L709 580" stroke-width="10" stroke="url(#SvgjsLinearGradient1051)" stroke-linecap="round" class="BottomLeft"></path><path d="M432 224L716 -60" stroke-width="10" stroke="url(#SvgjsLinearGradient1049)" stroke-linecap="round" class="TopRight"></path><path d="M530 468L907 91" stroke-width="6" stroke="url(#SvgjsLinearGradient1052)" stroke-linecap="round" class="BottomLeft"></path><path d="M883 292L1066 109" stroke-width="10" stroke="url(#SvgjsLinearGradient1049)" stroke-linecap="round" class="TopRight"></path><path d="M924 509L1109 324" stroke-width="8" stroke="url(#SvgjsLinearGradient1051)" stroke-linecap="round" class="BottomLeft"></path></g><defs><mask id="SvgjsMask1048"><rect width="1440" height="560" fill="#ffffff"></rect></mask><linearGradient x1="0%" y1="100%" x2="100%" y2="0%" id="SvgjsLinearGradient1049"><stop stop-color="rgba(27, 182, 48, 0)" offset="0"></stop><stop stop-color="rgba(27, 182, 48, 1)" offset="1"></stop></linearGradient><linearGradient x1="0%" y1="100%" x2="100%" y2="0%" id="SvgjsLinearGradient1050"><stop stop-color="rgba(68, 68, 68, 0)" offset="0"></stop><stop stop-color="rgba(68, 68, 68, 1)" offset="1"></stop></linearGradient><linearGradient x1="100%" y1="0%" x2="0%" y2="100%" id="SvgjsLinearGradient1051"><stop stop-color="rgba(27, 182, 48, 0)" offset="0"></stop><stop stop-color="rgba(27, 182, 48, 1)" offset="1"></stop></linearGradient><linearGradient x1="100%" y1="0%" x2="0%" y2="100%" id="SvgjsLinearGradient1052"><stop stop-color="rgba(68, 68, 68, 0)" offset="0"></stop><stop stop-color="rgba(68, 68, 68, 1)" offset="1"></stop></linearGradient></defs></svg>