<svg xmlns="http://www.w3.org/2000/svg" version="1.1" xmlns:xlink="http://www.w3.org/1999/xlink" xmlns:svgjs="http://svgjs.com/svgjs" width="1440" height="560" preserveAspectRatio="none" viewBox="0 0 1440 560"><g mask="url(&quot;#SvgjsMask1038&quot;)" fill="none"><rect width="1440" height="560" x="0" y="0" fill="rgba(0, 0, 0, 1)"></rect><path d="M913 297L574 -42" stroke-width="6" stroke="url(#SvgjsLinearGradient1039)" stroke-linecap="round" class="BottomRight"></path><path d="M212 280L511 579" stroke-width="6" stroke="url(#SvgjsLinearGradient1039)" stroke-linecap="round" class="BottomRight"></path><path d="M350 202L61 -87" stroke-width="6" stroke="url(#SvgjsLinearGradient1040)" stroke-linecap="round" class="TopLeft"></path><path d="M1166 365L1511 710" stroke-width="8" stroke="url(#SvgjsLinearGradient1041)" stroke-linecap="round" class="BottomRight"></path><path d="M1346 366L1617 637" stroke-width="10" stroke="url(#SvgjsLinearGradient1040)" stroke-linecap="round" class="TopLeft"></path><path d="M639 365L393 119" stroke-width="6" stroke="url(#SvgjsLinearGradient1039)" stroke-linecap="round" class="BottomRight"></path><path d="M1207 177L1560 530" stroke-width="6" stroke="url(#SvgjsLinearGradient1041)" stroke-linecap="round" class="BottomRight"></path><path d="M446 428L209 191" stroke-width="10" stroke="url(#SvgjsLinearGradient1039)" stroke-linecap="round" class="BottomRight"></path><path d="M134 317L-197 -14" stroke-width="10" stroke="url(#SvgjsLinearGradient1039)" stroke-linecap="round" class="BottomRight"></path><path d="M245 537L-84 208" stroke-width="10" stroke="url(#SvgjsLinearGradient1039)" stroke-linecap="round" class="BottomRight"></path><path d="M919 205L1271 557" stroke-width="6" stroke="url(#SvgjsLinearGradient1042)" stroke-linecap="round" class="TopLeft"></path><path d="M784 249L1172 637" stroke-width="10" stroke="url(#SvgjsLinearGradient1041)" stroke-linecap="round" class="BottomRight"></path><path d="M1109 50L1441 382" stroke-width="10" stroke="url(#SvgjsLinearGradient1041)" stroke-linecap="round" class="BottomRight"></path><path d="M301 152L84 -65" stroke-width="6" stroke="url(#SvgjsLinearGradient1039)" stroke-linecap="round" class="BottomRight"></path><path d="M32 441L213 622" stroke-width="6" stroke="url(#SvgjsLinearGradient1039)" stroke-linecap="round" class="BottomRight"></path><path d="M694 294L372 -28" stroke-width="6" stroke="url(#SvgjsLinearGradient1041)" stroke-linecap="round" class="BottomRight"></path><path d="M813 72L544 -197" stroke-width="10" stroke="url(#SvgjsLinearGradient1039)" stroke-linecap="round" class="BottomRight"></path><path d="M1276 97L1117 -62" stroke-width="6" stroke="url(#SvgjsLinearGradient1040)" stroke-linecap="round" class="TopLeft"></path><path d="M1035 207L1445 617" stroke-width="10" stroke="url(#SvgjsLinearGradient1040)" stroke-linecap="round" class="TopLeft"></path><path d="M231 446L458 673" stroke-width="10" stroke="url(#SvgjsLinearGradient1040)" stroke-linecap="round" class="TopLeft"></path><path d="M1053 180L1435 562" stroke-width="6" stroke="url(#SvgjsLinearGradient1041)" stroke-linecap="round" class="BottomRight"></path><path d="M768 286L972 490" stroke-width="10" stroke="url(#SvgjsLinearGradient1039)" stroke-linecap="round" class="BottomRight"></path><path d="M332 196L684 548" stroke-width="6" stroke="url(#SvgjsLinearGradient1042)" stroke-linecap="round" class="TopLeft"></path><path d="M1037 300L720 -17" stroke-width="10" stroke="url(#SvgjsLinearGradient1039)" stroke-linecap="round" class="BottomRight"></path><path d="M64 482L-279 139" stroke-width="6" stroke="url(#SvgjsLinearGradient1042)" stroke-linecap="round" class="TopLeft"></path><path d="M775 389L563 177" stroke-width="8" stroke="url(#SvgjsLinearGradient1042)" stroke-linecap="round" class="TopLeft"></path><path d="M796 427L433 64" stroke-width="10" stroke="url(#SvgjsLinearGradient1042)" stroke-linecap="round" class="TopLeft"></path><path d="M411 331L619 539" stroke-width="6" stroke="url(#SvgjsLinearGradient1041)" stroke-linecap="round" class="BottomRight"></path><path d="M502 499L817 814" stroke-width="6" stroke="url(#SvgjsLinearGradient1041)" stroke-linecap="round" class="BottomRight"></path><path d="M786 339L1167 720" stroke-width="6" stroke="url(#SvgjsLinearGradient1040)" stroke-linecap="round" class="TopLeft"></path><path d="M874 283L1224 633" stroke-width="6" stroke="url(#SvgjsLinearGradient1042)" stroke-linecap="round" class="TopLeft"></path><path d="M1421 171L1752 502" stroke-width="10" stroke="url(#SvgjsLinearGradient1041)" stroke-linecap="round" class="BottomRight"></path><path d="M61 394L211 544" stroke-width="6" stroke="url(#SvgjsLinearGradient1042)" stroke-linecap="round" class="TopLeft"></path><path d="M1344 408L1112 176" stroke-width="10" stroke="url(#SvgjsLinearGradient1041)" stroke-linecap="round" class="BottomRight"></path><path d="M1381 424L1220 263" stroke-width="8" stroke="url(#SvgjsLinearGradient1041)" stroke-linecap="round" class="BottomRight"></path><path d="M1132 94L1354 316" stroke-width="8" stroke="url(#SvgjsLinearGradient1042)" stroke-linecap="round" class="TopLeft"></path><path d="M658 113L807 262" stroke-width="6" stroke="url(#SvgjsLinearGradient1040)" stroke-linecap="round" class="TopLeft"></path><path d="M6 184L284 462" stroke-width="10" stroke="url(#SvgjsLinearGradient1041)" stroke-linecap="round" class="BottomRight"></path><path d="M813 280L626 93" stroke-width="8" stroke="url(#SvgjsLinearGradient1042)" stroke-linecap="round" class="TopLeft"></path></g><defs><mask id="SvgjsMask1038"><rect width="1440" height="560" fill="#ffffff"></rect></mask><linearGradient x1="0%" y1="0%" x2="100%" y2="100%" id="SvgjsLinearGradient1039"><stop stop-color="rgba(27, 182, 48, 0)" offset="0"></stop><stop stop-color="rgba(27, 182, 48, 1)" offset="1"></stop></linearGradient><linearGradient x1="100%" y1="100%" x2="0%" y2="0%" id="SvgjsLinearGradient1040"><stop stop-color="rgba(27, 182, 48, 0)" offset="0"></stop><stop stop-color="rgba(27, 182, 48, 1)" offset="1"></stop></linearGradient><linearGradient x1="0%" y1="0%" x2="100%" y2="100%" id="SvgjsLinearGradient1041"><stop stop-color="rgba(68, 68, 68, 0)" offset="0"></stop><stop stop-color="rgba(68, 68, 68, 1)" offset="1"></stop></linearGradient><linearGradient x1="100%" y1="100%" x2="0%" y2="0%" id="SvgjsLinearGradient1042"><stop stop-color="rgba(68, 68, 68, 0)" offset="0"></stop><stop stop-color="rgba(68, 68, 68, 1)" offset="1"></stop></linearGradient></defs></svg>