<svg xmlns="http://www.w3.org/2000/svg" version="1.1" xmlns:xlink="http://www.w3.org/1999/xlink" xmlns:svgjs="http://svgjs.com/svgjs" width="2048" height="1536" preserveAspectRatio="none" viewBox="0 0 2048 1536"><g mask="url(&quot;#SvgjsMask1562&quot;)" fill="none"><rect width="2048" height="1536" x="0" y="0" fill="rgba(0, 0, 0, 1)"></rect><path d="M1471 1229L360 2340" stroke-width="8" stroke="url(#SvgjsLinearGradient1563)" stroke-linecap="round" class="BottomLeft"></path><path d="M1845 1367L2538 674" stroke-width="10" stroke="url(#SvgjsLinearGradient1563)" stroke-linecap="round" class="BottomLeft"></path><path d="M1299 297L168 1428" stroke-width="6" stroke="url(#SvgjsLinearGradient1564)" stroke-linecap="round" class="TopRight"></path><path d="M1091 539L369 1261" stroke-width="8" stroke="url(#SvgjsLinearGradient1564)" stroke-linecap="round" class="TopRight"></path><path d="M791 969L-178 1938" stroke-width="10" stroke="url(#SvgjsLinearGradient1564)" stroke-linecap="round" class="TopRight"></path><path d="M1314 761L433 1642" stroke-width="6" stroke="url(#SvgjsLinearGradient1563)" stroke-linecap="round" class="BottomLeft"></path><path d="M1442 1388L2031 799" stroke-width="6" stroke="url(#SvgjsLinearGradient1563)" stroke-linecap="round" class="BottomLeft"></path><path d="M687 496L1748 -565" stroke-width="10" stroke="url(#SvgjsLinearGradient1564)" stroke-linecap="round" class="TopRight"></path><path d="M552 1252L43 1761" stroke-width="6" stroke="url(#SvgjsLinearGradient1563)" stroke-linecap="round" class="BottomLeft"></path><path d="M1150 987L227 1910" stroke-width="8" stroke="url(#SvgjsLinearGradient1563)" stroke-linecap="round" class="BottomLeft"></path><path d="M921 1440L1586 775" stroke-width="10" stroke="url(#SvgjsLinearGradient1563)" stroke-linecap="round" class="BottomLeft"></path><path d="M888 1029L1862 55" stroke-width="6" stroke="url(#SvgjsLinearGradient1563)" stroke-linecap="round" class="BottomLeft"></path><path d="M707 1476L1498 685" stroke-width="8" stroke="url(#SvgjsLinearGradient1563)" stroke-linecap="round" class="BottomLeft"></path><path d="M1856 93L2880 -931" stroke-width="8" stroke="url(#SvgjsLinearGradient1563)" stroke-linecap="round" class="BottomLeft"></path><path d="M895 1433L1655 673" stroke-width="8" stroke="url(#SvgjsLinearGradient1563)" stroke-linecap="round" class="BottomLeft"></path><path d="M500 188L1007 -319" stroke-width="6" stroke="url(#SvgjsLinearGradient1564)" stroke-linecap="round" class="TopRight"></path><path d="M1185 137L2212 -890" stroke-width="8" stroke="url(#SvgjsLinearGradient1564)" stroke-linecap="round" class="TopRight"></path><path d="M1853 776L2427 202" stroke-width="10" stroke="url(#SvgjsLinearGradient1563)" stroke-linecap="round" class="BottomLeft"></path><path d="M1920 1235L1196 1959" stroke-width="6" stroke="url(#SvgjsLinearGradient1564)" stroke-linecap="round" class="TopRight"></path><path d="M700 1422L1729 393" stroke-width="6" stroke="url(#SvgjsLinearGradient1563)" stroke-linecap="round" class="BottomLeft"></path><path d="M589 14L-427 1030" stroke-width="10" stroke="url(#SvgjsLinearGradient1564)" stroke-linecap="round" class="TopRight"></path><path d="M1776 1053L2800 29" stroke-width="8" stroke="url(#SvgjsLinearGradient1563)" stroke-linecap="round" class="BottomLeft"></path><path d="M1954 879L1135 1698" stroke-width="6" stroke="url(#SvgjsLinearGradient1563)" stroke-linecap="round" class="BottomLeft"></path><path d="M1135 1189L302 2022" stroke-width="6" stroke="url(#SvgjsLinearGradient1564)" stroke-linecap="round" class="TopRight"></path><path d="M267 847L912 202" stroke-width="10" stroke="url(#SvgjsLinearGradient1564)" stroke-linecap="round" class="TopRight"></path><path d="M1991 370L2702 -341" stroke-width="6" stroke="url(#SvgjsLinearGradient1564)" stroke-linecap="round" class="TopRight"></path><path d="M1828 14L2592 -750" stroke-width="10" stroke="url(#SvgjsLinearGradient1563)" stroke-linecap="round" class="BottomLeft"></path><path d="M1812 842L709 1945" stroke-width="6" stroke="url(#SvgjsLinearGradient1563)" stroke-linecap="round" class="BottomLeft"></path><path d="M1814 487L2307 -6" stroke-width="10" stroke="url(#SvgjsLinearGradient1564)" stroke-linecap="round" class="TopRight"></path><path d="M38 277L-566 881" stroke-width="8" stroke="url(#SvgjsLinearGradient1564)" stroke-linecap="round" class="TopRight"></path><path d="M1799 433L1280 952" stroke-width="10" stroke="url(#SvgjsLinearGradient1563)" stroke-linecap="round" class="BottomLeft"></path><path d="M1037 1360L1970 427" stroke-width="6" stroke="url(#SvgjsLinearGradient1563)" stroke-linecap="round" class="BottomLeft"></path><path d="M628 616L1210 34" stroke-width="10" stroke="url(#SvgjsLinearGradient1564)" stroke-linecap="round" class="TopRight"></path><path d="M1889 277L2841 -675" stroke-width="10" stroke="url(#SvgjsLinearGradient1563)" stroke-linecap="round" class="BottomLeft"></path><path d="M1561 430L1980 11" stroke-width="10" stroke="url(#SvgjsLinearGradient1563)" stroke-linecap="round" class="BottomLeft"></path><path d="M118 166L1230 -946" stroke-width="6" stroke="url(#SvgjsLinearGradient1564)" stroke-linecap="round" class="TopRight"></path><path d="M1624 533L2489 -332" stroke-width="10" stroke="url(#SvgjsLinearGradient1564)" stroke-linecap="round" class="TopRight"></path><path d="M1839 8L1296 551" stroke-width="10" stroke="url(#SvgjsLinearGradient1563)" stroke-linecap="round" class="BottomLeft"></path><path d="M1943 771L992 1722" stroke-width="6" stroke="url(#SvgjsLinearGradient1563)" stroke-linecap="round" class="BottomLeft"></path><path d="M1818 1148L1136 1830" stroke-width="6" stroke="url(#SvgjsLinearGradient1564)" stroke-linecap="round" class="TopRight"></path><path d="M1686 939L1147 1478" stroke-width="10" stroke="url(#SvgjsLinearGradient1563)" stroke-linecap="round" class="BottomLeft"></path><path d="M281 1141L1272 150" stroke-width="8" stroke="url(#SvgjsLinearGradient1564)" stroke-linecap="round" class="TopRight"></path><path d="M785 999L294 1490" stroke-width="8" stroke="url(#SvgjsLinearGradient1563)" stroke-linecap="round" class="BottomLeft"></path><path d="M1057 1283L1645 695" stroke-width="8" stroke="url(#SvgjsLinearGradient1564)" stroke-linecap="round" class="TopRight"></path><path d="M484 305L983 -194" stroke-width="8" stroke="url(#SvgjsLinearGradient1563)" stroke-linecap="round" class="BottomLeft"></path><path d="M1509 74L2287 -704" stroke-width="10" stroke="url(#SvgjsLinearGradient1563)" stroke-linecap="round" class="BottomLeft"></path><path d="M1327 169L877 619" stroke-width="8" stroke="url(#SvgjsLinearGradient1564)" stroke-linecap="round" class="TopRight"></path><path d="M1797 1166L2265 698" stroke-width="10" stroke="url(#SvgjsLinearGradient1564)" stroke-linecap="round" class="TopRight"></path><path d="M567 413L1444 -464" stroke-width="6" stroke="url(#SvgjsLinearGradient1564)" stroke-linecap="round" class="TopRight"></path><path d="M1638 260L1165 733" stroke-width="6" stroke="url(#SvgjsLinearGradient1564)" stroke-linecap="round" class="TopRight"></path><path d="M209 764L1138 -165" stroke-width="8" stroke="url(#SvgjsLinearGradient1564)" stroke-linecap="round" class="TopRight"></path><path d="M1913 220L2368 -235" stroke-width="8" stroke="url(#SvgjsLinearGradient1564)" stroke-linecap="round" class="TopRight"></path><path d="M1431 247L2513 -835" stroke-width="6" stroke="url(#SvgjsLinearGradient1563)" stroke-linecap="round" class="BottomLeft"></path><path d="M1725 796L2756 -235" stroke-width="8" stroke="url(#SvgjsLinearGradient1563)" stroke-linecap="round" class="BottomLeft"></path><path d="M1942 1075L2863 154" stroke-width="10" stroke="url(#SvgjsLinearGradient1564)" stroke-linecap="round" class="TopRight"></path><path d="M1368 1370L659 2079" stroke-width="8" stroke="url(#SvgjsLinearGradient1564)" stroke-linecap="round" class="TopRight"></path><path d="M1240 1177L121 2296" stroke-width="8" stroke="url(#SvgjsLinearGradient1564)" stroke-linecap="round" class="TopRight"></path><path d="M1387 213L459 1141" stroke-width="8" stroke="url(#SvgjsLinearGradient1564)" stroke-linecap="round" class="TopRight"></path><path d="M872 185L1330 -273" stroke-width="6" stroke="url(#SvgjsLinearGradient1564)" stroke-linecap="round" class="TopRight"></path><path d="M1825 565L2488 -98" stroke-width="6" stroke="url(#SvgjsLinearGradient1564)" stroke-linecap="round" class="TopRight"></path><path d="M919 938L1984 -127" stroke-width="10" stroke="url(#SvgjsLinearGradient1564)" stroke-linecap="round" class="TopRight"></path><path d="M661 485L-413 1559" stroke-width="8" stroke="url(#SvgjsLinearGradient1563)" stroke-linecap="round" class="BottomLeft"></path><path d="M1533 556L477 1612" stroke-width="6" stroke="url(#SvgjsLinearGradient1563)" stroke-linecap="round" class="BottomLeft"></path><path d="M2034 1313L1241 2106" stroke-width="6" stroke="url(#SvgjsLinearGradient1564)" stroke-linecap="round" class="TopRight"></path></g><defs><mask id="SvgjsMask1562"><rect width="2048" height="1536" fill="#ffffff"></rect></mask><linearGradient x1="100%" y1="0%" x2="0%" y2="100%" id="SvgjsLinearGradient1563"><stop stop-color="rgba(83, 83, 83, 0)" offset="0"></stop><stop stop-color="rgba(83, 83, 83, 1)" offset="1"></stop></linearGradient><linearGradient x1="0%" y1="100%" x2="100%" y2="0%" id="SvgjsLinearGradient1564"><stop stop-color="rgba(83, 83, 83, 0)" offset="0"></stop><stop stop-color="rgba(83, 83, 83, 1)" offset="1"></stop></linearGradient></defs></svg>