<svg xmlns="http://www.w3.org/2000/svg" version="1.1" xmlns:xlink="http://www.w3.org/1999/xlink" xmlns:svgjs="http://svgjs.com/svgjs" width="1440" height="560" preserveAspectRatio="none" viewBox="0 0 1440 560"><g mask="url(&quot;#SvgjsMask1058&quot;)" fill="none"><rect width="1440" height="560" x="0" y="0" fill="rgba(0, 0, 0, 1)"></rect><path d="M73 26L458 411" stroke-width="6" stroke="url(#SvgjsLinearGradient1059)" stroke-linecap="round" class="TopLeft"></path><path d="M1279 162L885 -232" stroke-width="6" stroke="url(#SvgjsLinearGradient1060)" stroke-linecap="round" class="BottomRight"></path><path d="M1395 370L1649 624" stroke-width="6" stroke="url(#SvgjsLinearGradient1061)" stroke-linecap="round" class="BottomRight"></path><path d="M965 250L1371 656" stroke-width="8" stroke="url(#SvgjsLinearGradient1061)" stroke-linecap="round" class="BottomRight"></path><path d="M126 281L-248 -93" stroke-width="6" stroke="url(#SvgjsLinearGradient1062)" stroke-linecap="round" class="TopLeft"></path><path d="M1146 440L838 132" stroke-width="8" stroke="url(#SvgjsLinearGradient1060)" stroke-linecap="round" class="BottomRight"></path><path d="M846 497L650 301" stroke-width="8" stroke="url(#SvgjsLinearGradient1062)" stroke-linecap="round" class="TopLeft"></path><path d="M675 37L1073 435" stroke-width="10" stroke="url(#SvgjsLinearGradient1062)" stroke-linecap="round" class="TopLeft"></path><path d="M180 360L428 608" stroke-width="10" stroke="url(#SvgjsLinearGradient1059)" stroke-linecap="round" class="TopLeft"></path><path d="M458 92L653 287" stroke-width="6" stroke="url(#SvgjsLinearGradient1061)" stroke-linecap="round" class="BottomRight"></path><path d="M967 443L1268 744" stroke-width="6" stroke="url(#SvgjsLinearGradient1059)" stroke-linecap="round" class="TopLeft"></path><path d="M684 0L1081 397" stroke-width="8" stroke="url(#SvgjsLinearGradient1060)" stroke-linecap="round" class="BottomRight"></path><path d="M295 56L581 342" stroke-width="10" stroke="url(#SvgjsLinearGradient1062)" stroke-linecap="round" class="TopLeft"></path><path d="M465 376L691 602" stroke-width="6" stroke="url(#SvgjsLinearGradient1060)" stroke-linecap="round" class="BottomRight"></path><path d="M764 290L1061 587" stroke-width="6" stroke="url(#SvgjsLinearGradient1059)" stroke-linecap="round" class="TopLeft"></path><path d="M851 213L493 -145" stroke-width="8" stroke="url(#SvgjsLinearGradient1062)" stroke-linecap="round" class="TopLeft"></path><path d="M889 513L1121 745" stroke-width="8" stroke="url(#SvgjsLinearGradient1060)" stroke-linecap="round" class="BottomRight"></path><path d="M240 452L452 664" stroke-width="6" stroke="url(#SvgjsLinearGradient1059)" stroke-linecap="round" class="TopLeft"></path><path d="M1163 148L1473 458" stroke-width="6" stroke="url(#SvgjsLinearGradient1062)" stroke-linecap="round" class="TopLeft"></path><path d="M645 388L309 52" stroke-width="10" stroke="url(#SvgjsLinearGradient1060)" stroke-linecap="round" class="BottomRight"></path><path d="M1271 192L1541 462" stroke-width="6" stroke="url(#SvgjsLinearGradient1059)" stroke-linecap="round" class="TopLeft"></path><path d="M553 193L883 523" stroke-width="10" stroke="url(#SvgjsLinearGradient1061)" stroke-linecap="round" class="BottomRight"></path><path d="M698 84L489 -125" stroke-width="8" stroke="url(#SvgjsLinearGradient1061)" stroke-linecap="round" class="BottomRight"></path><path d="M892 58L599 -235" stroke-width="6" stroke="url(#SvgjsLinearGradient1060)" stroke-linecap="round" class="BottomRight"></path><path d="M93 313L457 677" stroke-width="6" stroke="url(#SvgjsLinearGradient1062)" stroke-linecap="round" class="TopLeft"></path><path d="M250 251L-112 -111" stroke-width="10" stroke="url(#SvgjsLinearGradient1060)" stroke-linecap="round" class="BottomRight"></path><path d="M542 15L143 -384" stroke-width="10" stroke="url(#SvgjsLinearGradient1060)" stroke-linecap="round" class="BottomRight"></path><path d="M414 526L128 240" stroke-width="8" stroke="url(#SvgjsLinearGradient1062)" stroke-linecap="round" class="TopLeft"></path><path d="M1324 67L1699 442" stroke-width="10" stroke="url(#SvgjsLinearGradient1060)" stroke-linecap="round" class="BottomRight"></path><path d="M967 391L777 201" stroke-width="6" stroke="url(#SvgjsLinearGradient1061)" stroke-linecap="round" class="BottomRight"></path><path d="M281 82L101 -98" stroke-width="8" stroke="url(#SvgjsLinearGradient1062)" stroke-linecap="round" class="TopLeft"></path><path d="M451 274L62 -115" stroke-width="10" stroke="url(#SvgjsLinearGradient1060)" stroke-linecap="round" class="BottomRight"></path><path d="M982 424L1137 579" stroke-width="8" stroke="url(#SvgjsLinearGradient1060)" stroke-linecap="round" class="BottomRight"></path><path d="M561 348L951 738" stroke-width="10" stroke="url(#SvgjsLinearGradient1060)" stroke-linecap="round" class="BottomRight"></path><path d="M1106 36L1257 187" stroke-width="10" stroke="url(#SvgjsLinearGradient1062)" stroke-linecap="round" class="TopLeft"></path><path d="M362 188L80 -94" stroke-width="8" stroke="url(#SvgjsLinearGradient1061)" stroke-linecap="round" class="BottomRight"></path><path d="M969 228L666 -75" stroke-width="10" stroke="url(#SvgjsLinearGradient1059)" stroke-linecap="round" class="TopLeft"></path><path d="M761 424L348 11" stroke-width="6" stroke="url(#SvgjsLinearGradient1062)" stroke-linecap="round" class="TopLeft"></path><path d="M203 64L60 -79" stroke-width="10" stroke="url(#SvgjsLinearGradient1060)" stroke-linecap="round" class="BottomRight"></path></g><defs><mask id="SvgjsMask1058"><rect width="1440" height="560" fill="#ffffff"></rect></mask><linearGradient x1="100%" y1="100%" x2="0%" y2="0%" id="SvgjsLinearGradient1059"><stop stop-color="rgba(68, 68, 68, 0)" offset="0"></stop><stop stop-color="rgba(68, 68, 68, 1)" offset="1"></stop></linearGradient><linearGradient x1="0%" y1="0%" x2="100%" y2="100%" id="SvgjsLinearGradient1060"><stop stop-color="rgba(27, 182, 48, 0)" offset="0"></stop><stop stop-color="rgba(27, 182, 48, 1)" offset="1"></stop></linearGradient><linearGradient x1="0%" y1="0%" x2="100%" y2="100%" id="SvgjsLinearGradient1061"><stop stop-color="rgba(68, 68, 68, 0)" offset="0"></stop><stop stop-color="rgba(68, 68, 68, 1)" offset="1"></stop></linearGradient><linearGradient x1="100%" y1="100%" x2="0%" y2="0%" id="SvgjsLinearGradient1062"><stop stop-color="rgba(27, 182, 48, 0)" offset="0"></stop><stop stop-color="rgba(27, 182, 48, 1)" offset="1"></stop></linearGradient></defs></svg>